<svg width="537.3125px" height="138.8px" xmlns="http://www.w3.org/2000/svg" viewBox="-18.65625 5.599999999999994 537.3125 138.8" style="background: rgb(255, 182, 187);" preserveAspectRatio="xMidYMid"><defs><filter id="editing-hover" x="-100%" y="-100%" width="300%" height="300%"><feFlood flood-color="#95d5ee" result="flood"></feFlood><feComposite operator="in" in2="SourceAlpha" in="flood" result="shadow"></feComposite><feOffset dx="-4" dy="-4" in="SourceGraphic" result="offset-1"></feOffset><feOffset dx="4" dy="4" in="shadow" result="offset-2"></feOffset><feMerge><feMergeNode in="offset-2"></feMergeNode><feMergeNode in="offset-1"></feMergeNode></feMerge></filter></defs><g filter="url(#editing-hover)"><g transform="translate(65.2832088470459, 109.53500175476074)"><path d="M-8.17 10.35L-8.17 10.35L-8.17 10.35Q-4.35 9.90-1.95 4.95L-1.95 4.95L-1.95 4.95Q0.53-0.07 2.77-11.63L2.77-11.63L10.05-49.50L26.32-49.50L19.05-11.63L19.05-11.63Q16.27 3.07 11.70 8.85L11.70 8.85L11.70 8.85Q9.30 11.85 6.26 13.05L6.26 13.05L6.26 13.05Q3.23 14.25-0.07 14.25L-0.07 14.25L-0.07 14.25Q-3.38 14.25-5.51 13.05L-5.51 13.05L-5.51 13.05Q-7.65 11.85-8.17 10.35ZM52.05-3.15L52.05-3.15L52.05-3.15Q48.45 1.50 39.52 1.50L39.52 1.50L39.52 1.50Q34.88 1.50 31.50-1.31L31.50-1.31L31.50-1.31Q28.13-4.13 28.13-8.17L28.13-8.17L28.13-8.17Q28.13-10.42 28.35-11.55L28.35-11.55L33.38-38.25L48.60-39.75L43.13-10.80L43.13-10.80Q42.83-9.15 42.83-8.17L42.83-8.17L42.83-8.17Q42.83-3.82 45.45-3.82L45.45-3.82L45.45-3.82Q48.38-3.82 50.47-7.80L50.47-7.80L50.47-7.80Q51.15-9.07 51.45-10.72L51.45-10.72L56.77-38.25L71.55-39.75L66-10.50L66-10.50Q65.77-9.38 65.77-8.17L65.77-8.17L65.77-8.17Q65.77-6.97 66.45-5.66L66.45-5.66L66.45-5.66Q67.13-4.35 69.30-4.05L69.30-4.05L69.30-4.05Q68.85-2.25 67.27-1.05L67.27-1.05L67.27-1.05Q63.97 1.50 60.41 1.50L60.41 1.50L60.41 1.50Q56.85 1.50 54.75 0.22L54.75 0.22L54.75 0.22Q52.65-1.05 52.05-3.15ZM93.53-4.13L93.53-4.13L93.53-4.13Q91.20 1.50 83.78 1.50L83.78 1.50L83.78 1.50Q80.03 1.50 77.63-1.13L77.63-1.13L77.63-1.13Q75.67-3.30 75.67-5.77L75.67-5.77L75.67-5.77Q75.67-11.40 78.30-23.70L78.30-23.70L83.78-52.50L99-54L91.72-16.05L91.72-16.05Q90.45-10.50 90.45-8.55L90.45-8.55L90.45-8.55Q90.45-4.27 93.53-4.13ZM123.75-8.47L123.75-8.47L123.75-8.47Q119.85-4.42 112.72-4.42L112.72-4.42L112.72-4.42Q103.80-4.42 101.92-10.95L101.92-10.95L101.92-10.95Q101.33-12.90 101.33-15.07L101.33-15.07L101.33-15.07Q101.33-17.25 101.78-19.50L101.78-19.50L105.30-38.25L120.53-39.75L116.40-17.93L116.40-17.93Q116.25-16.95 116.03-15.90L116.03-15.90L116.03-15.90Q115.80-14.85 115.80-13.76L115.80-13.76L115.80-13.76Q115.80-12.67 116.17-11.96L116.17-11.96L116.17-11.96Q116.55-11.25 117.08-10.80L117.08-10.80L117.08-10.80Q117.97-10.20 119.59-10.20L119.59-10.20L119.59-10.20Q121.20-10.20 122.59-12.15L122.59-12.15L122.59-12.15Q123.97-14.10 124.65-17.47L124.65-17.47L128.78-38.25L143.55-39.75L137.93-10.28L137.93-10.28Q135.15 4.13 129.45 9.82L129.45 9.82L129.45 9.82Q126.53 12.75 122.74 13.91L122.74 13.91L122.74 13.91Q118.95 15.07 114.08 15.07L114.08 15.07L114.08 15.07Q106.20 15.07 101.70 12.60L101.70 12.60L101.70 12.60Q97.20 10.13 97.20 6L97.20 6L97.20 6Q97.20 2.92 99.53 1.16L99.53 1.16L99.53 1.16Q101.85-0.60 105.45-0.60L105.45-0.60L105.45-0.60Q108.60-0.60 111 0.75L111 0.75L111 0.75Q112.42 1.57 113.10 2.63L113.10 2.63L113.10 2.63Q111.38 4.13 111.38 6.60L111.38 6.60L111.38 6.60Q111.38 9.90 114.38 9.90L114.38 9.90L114.38 9.90Q119.33 9.90 122.17-1.50L122.17-1.50L122.17-1.50Q123-4.88 123.75-8.47ZM177.97 1.50L177.97 1.50L177.97 1.50Q168.90 1.50 168.90-5.55L168.90-5.55L168.90-5.55Q168.97-7.50 169.57-10.80L169.57-10.80L170.92-17.70L170.92-17.70Q172.95-27.45 172.95-29.63L172.95-29.63L172.95-29.63Q172.95-33.98 170.40-33.98L170.40-33.98L170.40-33.98Q166.13-33.98 163.88-22.80L163.88-22.80L159.45 0L144.38 1.50L152.17-38.32L164.47-39.75L163.28-32.40L163.28-32.40Q166.80-39.75 177.60-39.75L177.60-39.75L177.60-39.75Q182.85-39.75 185.06-37.54L185.06-37.54L185.06-37.54Q187.27-35.32 187.27-30.38L187.27-30.38L187.27-30.38Q187.27-25.72 184.88-14.85L184.88-14.85L184.88-14.85Q183.75-9.97 183.75-8.14L183.75-8.14L183.75-8.14Q183.75-6.30 184.76-5.25L184.76-5.25L184.76-5.25Q185.77-4.20 187.27-4.05L187.27-4.05L187.27-4.05Q186.52-1.50 183.94 0L183.94 0L183.94 0Q181.35 1.50 177.97 1.50ZM225 1.50L225 1.50L225 1.50Q215.93 1.50 215.93-5.55L215.93-5.55L215.93-5.55Q216-7.50 216.60-10.80L216.60-10.80L217.95-17.70L217.95-17.70Q219.97-27.45 219.97-29.63L219.97-29.63L219.97-29.63Q219.97-33.98 217.43-33.98L217.43-33.98L217.43-33.98Q213.15-33.98 210.90-22.80L210.90-22.80L206.47 0L191.40 1.50L199.20-38.32L211.50-39.75L210.30-32.40L210.30-32.40Q213.82-39.75 224.63-39.75L224.63-39.75L224.63-39.75Q229.88-39.75 232.09-37.54L232.09-37.54L232.09-37.54Q234.30-35.32 234.30-30.38L234.30-30.38L234.30-30.38Q234.30-25.72 231.90-14.85L231.90-14.85L231.90-14.85Q230.78-9.97 230.78-8.14L230.78-8.14L230.78-8.14Q230.78-6.30 231.79-5.25L231.79-5.25L231.79-5.25Q232.80-4.20 234.30-4.05L234.30-4.05L234.30-4.05Q233.55-1.50 230.96 0L230.96 0L230.96 0Q228.38 1.50 225 1.50ZM271.65-11.55L271.65-11.55L271.65-11.55Q273.07-9.75 273.07-6.26L273.07-6.26L273.07-6.26Q273.07-2.77 270.41-0.64L270.41-0.64L270.41-0.64Q267.75 1.50 263.10 1.50L263.10 1.50L263.10 1.50Q260.40 1.50 256.20 0.90L256.20 0.90L256.20 0.90Q247.95-0.38 245.59-0.38L245.59-0.38L245.59-0.38Q243.22-0.38 242.25-0.26L242.25-0.26L242.25-0.26Q241.28-0.15 239.70 0L239.70 0L248.78-49.50L265.20-49.50L257.70-8.25L257.70-8.25Q258.68-8.10 259.57-8.10L259.57-8.10L261.45-8.10L261.45-8.10Q267.75-8.10 271.65-11.55ZM281.36-2.25L281.36-2.25L281.36-2.25Q279.60-4.20 278.81-7.27L278.81-7.27L278.81-7.27Q278.02-10.35 278.02-15.38L278.02-15.38L278.02-15.38Q278.02-20.40 279.75-24.97L279.75-24.97L279.75-24.97Q281.47-29.55 284.63-32.85L284.63-32.85L284.63-32.85Q291.07-39.75 301.72-39.75L301.72-39.75L301.72-39.75Q305.55-39.75 308.32-38.48L308.32-38.48L321.15-39.75L315.60-10.50L315.60-10.50Q315.38-9.60 315.38-7.95L315.38-7.95L315.38-7.95Q315.38-6.30 316.39-5.25L316.39-5.25L316.39-5.25Q317.40-4.20 318.90-4.05L318.90-4.05L318.90-4.05Q318.15-1.50 315.41 0L315.41 0L315.41 0Q312.68 1.50 309.60 1.50L309.60 1.50L309.60 1.50Q306.52 1.50 304.46 0.34L304.46 0.34L304.46 0.34Q302.40-0.82 301.80-2.77L301.80-2.77L301.80-2.77Q300.60-0.90 298.05 0.30L298.05 0.30L298.05 0.30Q295.50 1.50 292.09 1.50L292.09 1.50L292.09 1.50Q288.68 1.50 285.90 0.60L285.90 0.60L285.90 0.60Q283.13-0.30 281.36-2.25ZM297.19-32.70L297.19-32.70L297.19-32.70Q296.32-31.35 295.57-29.06L295.57-29.06L295.57-29.06Q294.82-26.77 293.59-20.66L293.59-20.66L293.59-20.66Q292.35-14.55 292.35-10.20L292.35-10.20L292.35-10.20Q292.35-5.85 293.02-4.58L293.02-4.58L293.02-4.58Q293.70-3.30 294.90-3.30L294.90-3.30L294.90-3.30Q297.30-3.30 299.06-5.59L299.06-5.59L299.06-5.59Q300.82-7.88 301.50-11.92L301.50-11.92L305.47-33.90L305.47-33.90Q303.90-35.25 302.06-35.25L302.06-35.25L302.06-35.25Q300.22-35.25 299.14-34.65L299.14-34.65L299.14-34.65Q298.05-34.05 297.19-32.70ZM349.28-3.15L349.28-3.15L349.28-3.15Q345.68 1.50 336.75 1.50L336.75 1.50L336.75 1.50Q332.10 1.50 328.73-1.31L328.73-1.31L328.73-1.31Q325.35-4.13 325.35-8.17L325.35-8.17L325.35-8.17Q325.35-10.42 325.57-11.55L325.57-11.55L330.60-38.25L345.82-39.75L340.35-10.80L340.35-10.80Q340.05-9.15 340.05-8.17L340.05-8.17L340.05-8.17Q340.05-3.82 342.68-3.82L342.68-3.82L342.68-3.82Q345.60-3.82 347.70-7.80L347.70-7.80L347.70-7.80Q348.38-9.07 348.68-10.72L348.68-10.72L354-38.25L368.78-39.75L363.23-10.50L363.23-10.50Q363-9.38 363-8.17L363-8.17L363-8.17Q363-6.97 363.68-5.66L363.68-5.66L363.68-5.66Q364.35-4.35 366.53-4.05L366.53-4.05L366.53-4.05Q366.07-2.25 364.50-1.05L364.50-1.05L364.50-1.05Q361.20 1.50 357.64 1.50L357.64 1.50L357.64 1.50Q354.07 1.50 351.98 0.22L351.98 0.22L351.98 0.22Q349.88-1.05 349.28-3.15Z" fill="#ffe691"></path></g></g><style>text {
  font-size: 64px;
  font-family: Arial Black;
  dominant-baseline: central;
  text-anchor: middle;
}</style></svg>